<svg width="29" height="24" viewBox="0 0 29 24" fill="none" xmlns="http://www.w3.org/2000/svg">
<path d="M0.98151 8.12794L2.64312 21.7249C2.68976 22.1215 2.88055 22.4872 3.17921 22.7523C3.47786 23.0174 3.86354 23.1634 4.26288 23.1627H25.5999C25.9993 23.1634 26.3849 23.0174 26.6836 22.7523C26.9822 22.4872 27.173 22.1215 27.2197 21.7249L28.879 8.12794C28.8905 8.03011 28.8811 7.93097 28.8515 7.83701C28.8219 7.74306 28.7728 7.65644 28.7073 7.58285C28.6419 7.50925 28.5616 7.45035 28.4717 7.41003C28.3818 7.3697 28.2844 7.34886 28.1859 7.34888H1.67453C1.57603 7.34886 1.47864 7.3697 1.38878 7.41003C1.29892 7.45035 1.21861 7.50925 1.15314 7.58285C1.08768 7.65644 1.03854 7.74306 1.00895 7.83701C0.979372 7.93097 0.970019 8.03011 0.98151 8.12794Z" fill="white"/>
<path d="M27.0231 4.3255C27.0231 3.89376 26.8516 3.4797 26.5463 3.17441C26.241 2.86912 25.827 2.69761 25.3952 2.69761H14.2814L11.4907 0.837158H4.46517C4.03343 0.837158 3.61937 1.00867 3.31408 1.31396C3.00879 1.61925 2.83728 2.03331 2.83728 2.46505V5.48828H27.0231V4.3255Z" fill="white"/>
</svg>
