<svg width="22" height="30" viewBox="0 0 22 30" fill="none" xmlns="http://www.w3.org/2000/svg">
<path d="M18 11H17V6C17 4.4087 16.3679 2.88258 15.2426 1.75736C14.1174 0.632141 12.5913 0 11 0C9.4087 0 7.88258 0.632141 6.75736 1.75736C5.63214 2.88258 5 4.4087 5 6V11H4C2.93949 11.0012 1.92275 11.423 1.17285 12.1729C0.422957 12.9227 0.00115803 13.9395 0 15V26C0.00115803 27.0605 0.422957 28.0773 1.17285 28.8271C1.92275 29.577 2.93949 29.9988 4 30H18C19.0605 29.9988 20.0773 29.577 20.8271 28.8271C21.577 28.0773 21.9988 27.0605 22 26V15C21.9988 13.9395 21.577 12.9227 20.8271 12.1729C20.0773 11.423 19.0605 11.0012 18 11ZM15 11H7V6C7 4.93913 7.42143 3.92172 8.17157 3.17157C8.92172 2.42143 9.93913 2 11 2C12.0609 2 13.0783 2.42143 13.8284 3.17157C14.5786 3.92172 15 4.93913 15 6V11Z" fill="#537FE7"/>
</svg>
