<svg width="34" height="24" viewBox="0 0 34 24" fill="none" xmlns="http://www.w3.org/2000/svg">
<path d="M9.5 3.25H32" stroke="#537FE7" stroke-width="4" stroke-linecap="round" stroke-linejoin="round"/>
<path d="M9.5 12H32" stroke="#537FE7" stroke-width="4" stroke-linecap="round" stroke-linejoin="round"/>
<path d="M9.5 20.75H32" stroke="#537FE7" stroke-width="4" stroke-linecap="round" stroke-linejoin="round"/>
<path d="M3.25 4.5C3.94036 4.5 4.5 3.94036 4.5 3.25C4.5 2.55964 3.94036 2 3.25 2C2.55964 2 2 2.55964 2 3.25C2 3.94036 2.55964 4.5 3.25 4.5Z" stroke="#537FE7" stroke-width="4" stroke-linecap="round" stroke-linejoin="round"/>
<path d="M3.25 13.25C3.94036 13.25 4.5 12.6904 4.5 12C4.5 11.3096 3.94036 10.75 3.25 10.75C2.55964 10.75 2 11.3096 2 12C2 12.6904 2.55964 13.25 3.25 13.25Z" stroke="#537FE7" stroke-width="4" stroke-linecap="round" stroke-linejoin="round"/>
<path d="M3.25 22C3.94036 22 4.5 21.4404 4.5 20.75C4.5 20.0596 3.94036 19.5 3.25 19.5C2.55964 19.5 2 20.0596 2 20.75C2 21.4404 2.55964 22 3.25 22Z" stroke="#537FE7" stroke-width="4" stroke-linecap="round" stroke-linejoin="round"/>
</svg>
