<?xml version="1.0" encoding="utf-8"?>
<!-- Generator: Adobe Illustrator 27.5.0, SVG Export Plug-In . SVG Version: 6.00 Build 0)  -->
<svg version="1.1" xmlns="http://www.w3.org/2000/svg" xmlns:xlink="http://www.w3.org/1999/xlink" x="0px" y="0px"
	 viewBox="0 0 500 500" style="enable-background:new 0 0 500 500;" xml:space="preserve">
<g id="BACKGROUND">
	<rect style="fill:#FFFFFF;" width="500" height="500"/>
</g>
<g id="OBJECTS">
	<circle style="fill:#E6EEF9;" cx="250" cy="250" r="203.488"/>
	<g>
		<path style="fill:#E8BBA6;" d="M418.764,436.971c-7.195-17.987-28.78-81.304-27.341-140.303c0,0-23.744-5.756-28.061-9.354
			c-4.317-3.598-159.73-69.072-169.803-74.828c-10.073-5.756-43.17-22.305-58.999-23.024c-15.829-0.72-20.866,19.427-2.158,34.536
			c18.707,15.11,43.89,21.585,43.89,21.585s-3.489,47.967-2.158,51.804c1.331,3.838-2.159,31.658,10.073,47.487
			c12.232,15.829,61.158,36.695,79.865,62.597c18.707,25.902,32.66,49.843,47.77,67.111c6.81,7.783,10.27,17.302,12.023,25.417
			h132.245C444.86,482.026,424.049,450.183,418.764,436.971z"/>
		<path style="fill:#3E5068;" d="M336.685,424.02H172.03c-7.978,0-14.446-6.468-14.446-14.446V70.08
			c0-7.978,6.468-14.446,14.446-14.446h164.655c7.978,0,14.446,6.468,14.446,14.446v339.494
			C351.131,417.552,344.663,424.02,336.685,424.02z"/>
		<path style="fill:#4C6381;" d="M334.49,421.937H174.225c-7.978,0-14.446-6.468-14.446-14.446V72.163
			c0-7.978,6.468-14.446,14.446-14.446H334.49c7.978,0,14.446,6.468,14.446,14.446v335.329
			C348.936,415.47,342.469,421.937,334.49,421.937z"/>
		<path style="fill:#B2D5D9;" d="M328.573,417.892H178.308c-7.978,0-14.446-6.468-14.446-14.446V74.985
			c0-7.978,6.468-14.446,14.446-14.446h150.265c7.978,0,14.446,6.468,14.446,14.446v328.462
			C343.019,411.425,336.551,417.892,328.573,417.892z"/>
		<path style="fill:#CBE3EA;" d="M325.471,414.753H181.41c-7.978,0-14.446-6.468-14.446-14.446V78.124
			c0-7.978,6.468-14.446,14.446-14.446h144.062c7.978,0,14.446,6.468,14.446,14.446v322.182
			C339.917,408.285,333.45,414.753,325.471,414.753z"/>
		<g>
			<path style="fill:#5C939D;" d="M311.49,363.33c-2.848-11.391-32.464-6.55-35.882-6.55s-83.154,6.835-83.154,6.835
				c-0.285,0.854-1.709,18.226-1.993,30.471c-0.205,8.821,1.215,19.265,2.025,24.418H314.05
				C313.657,407.729,313.909,373.004,311.49,363.33z"/>
			<path style="fill:#72B7C5;" d="M337.09,283.766c-3.402-26.537-11.981-51.628-20.146-63.875
				c-8.165-12.248-43.814-20.158-43.814-20.158l-33.341,1.701c0,0-32.451,4.043-44.557,15.14
				c-8.165,7.485-18.72,72.616-19.902,82.417c-1.786,14.799,17.691,19.052,21.434,20.413c0,0-6.541,36.218-8.922,44.723
				c0,0,38.241,15.71,69.2,13.669s59.233-9.398,59.233-9.398s-11.402-47.375-4.491-50.714
				C327.116,310.279,337.09,283.766,337.09,283.766z"/>
			<path style="fill:#3F526A;" d="M261.011,292.74c0,0-24.155-18.712-25.856-20.073c-1.701-1.361-5.103,2.382-4.083,3.742
				c1.021,1.361,24.495,18.031,27.217,19.732C261.011,297.843,261.011,292.74,261.011,292.74z"/>
			<path style="fill:#4C6381;" d="M316.238,282.313l-53.491,54.47c-0.281,0.286-0.68,0.425-1.079,0.373l-52.491-6.763
				c-1.007-0.13-1.471-1.322-0.816-2.098l45.675-54.157c0.275-0.326,0.693-0.493,1.116-0.448l60.307,6.45
				C316.526,280.254,316.989,281.548,316.238,282.313z"/>
			<path style="fill:#72B7C5;" d="M277.95,310.02c0,0,35.113-0.227,59.197-26.197c0,0,6.464,22.454-9.526,36.403
				s-57.172,16.514-70.424,5.443C243.945,314.599,277.95,310.02,277.95,310.02z"/>
			<path style="fill:#E8BBA6;" d="M270.125,182.1c0,0,0.68,11.227,3.062,17.691c0,0-12.251,16.372-33.341,1.701
				c0,0,4.083-10.887,3.742-22.454C243.248,167.47,270.125,182.1,270.125,182.1z"/>
			<path style="fill:#694F5E;" d="M239.764,182.184c0,0-26.523-3.202-25.674-35.984c0.849-32.782,25.249-47.603,32.117-44.195
				c0,0,16.494-9.743,36.317-3.152c19.823,6.592,19.583,18.045,17.622,24.672c0,0,5.274,47.924-18.801,56.644
				C249.4,191.741,239.764,182.184,239.764,182.184z"/>
			<path style="fill:#E8BBA6;" d="M269.014,326.071c8.862-1.88,14.15-17.48,14.15-22.474c0-4.994-5.549-1.942-5.827,0.277
				c-0.277,2.22-3.607,5.549-9.711,5.549s-10.266-4.439-14.705-8.601c-4.439-4.162-5.549-1.942-4.994,0.277s3.893,8.546,6.659,9.988
				c0,0-6.157-2.17-11.098-7.491c-3.607-3.884-5.272,0.555-4.994,1.942c0.278,1.387,2.775,7.214,8.601,9.988
				c0,0-5.272-2.22-8.879-4.439c-3.607-2.22-3.052,1.665-0.832,4.439C239.603,318.302,250.701,329.955,269.014,326.071z"/>
			<path style="fill:#DDEDFB;" d="M298.776,281.371l-2.747,3.181c-0.509,0.589-1.272,0.895-2.047,0.82l-22.716-2.189
				c-1.871-0.18-2.818-2.345-1.681-3.841l3.015-3.967c0.522-0.687,1.371-1.04,2.226-0.927l22.449,2.975
				C299.167,277.673,300.024,279.926,298.776,281.371z"/>
			<path style="fill:#E0A484;" d="M270.481,186.127l-17.319-10.919c-5.279-1.249-9.713-0.911-9.573,3.83
				c0.228,7.761-1.533,15.21-2.718,19.276c3.492,0.269,6.995-0.275,10.456-0.823c6.849-1.083,14.02-2.313,19.907-5.76
				C270.899,189.704,270.654,187.744,270.481,186.127z"/>
			<path style="fill:#E8BBA6;" d="M231.43,144.939c0,0-8.139-0.654-8.793,7.485c-0.654,8.139,7.512,8.454,7.512,8.454
				s4.112,33.779,32.219,32.283c28.108-1.496,25.204-37.567,26.225-46.017c0,0-6.725-9.756-19.245-11.103
				c-12.52-1.347-18.691-5.256-20.426-9.15C248.922,126.89,239.624,144.915,231.43,144.939z"/>
			<path style="fill:#E0A484;" d="M230.827,150.567c-0.573-0.764-1.331-1.336-2.221-1.684c-0.42-0.164-0.853-0.256-1.306-0.243
				c-0.451,0.012-0.724,0.109-1.052,0.408c-0.059,0.053-0.036,0.145,0.024,0.184c0.2,0.131,0.352,0.265,0.585,0.336
				c0.279,0.085,0.537,0.198,0.806,0.309c0.446,0.184,0.86,0.431,1.212,0.764c0.234,0.222,0.413,0.469,0.566,0.726
				c-0.105-0.015-0.212-0.023-0.32-0.02c-1.163,0.04-1.696,1.154-1.942,2.135c-0.229,0.91-0.368,2.066-0.072,2.98
				c0.376,1.161,1.585,1.587,2.588,0.861c0.691-0.5,1.226-1.181,1.564-1.962C231.936,153.792,231.874,151.962,230.827,150.567z"/>
			<path style="fill:#866479;" d="M293.651,151.935c-0.107-0.317-0.177-0.661-0.322-0.962c-0.17-0.352-0.469-0.613-0.723-0.906
				c-0.512-0.59-0.98-1.209-1.418-1.856c-0.877-1.293-1.649-2.652-2.499-3.962c-0.849-1.307-1.782-2.591-2.927-3.656
				c-1.281-1.191-2.788-2.047-4.399-2.706c-1.622-0.664-3.318-1.107-5.013-1.539c-1.965-0.501-3.931-1-5.909-1.45
				c-1.973-0.449-3.958-0.844-5.959-1.147c-1.954-0.295-3.933-0.521-5.825-1.116c-1.702-0.534-3.316-1.393-4.716-2.499
				c-1.349-1.066-2.438-2.423-3.787-3.475c-0.136-0.317-0.415-0.555-0.918-0.634c-0.274-0.043-0.653,0.067-0.702,0.398
				c-0.061,0.415-0.09,0.89-0.251,1.281c-0.214,0.52-0.596,0.981-0.913,1.441c-0.651,0.946-1.309,1.887-1.982,2.817
				c-1.32,1.822-2.709,3.595-4.245,5.241c-3.121,3.345-6.902,6.109-11.443,7.087c-2.814,0.606-5.766,0.494-8.611,0.293
				c-0.342-0.024-0.487,0.505-0.177,0.655c0.624,0.303,1.181,0.573,1.86,0.731c0.682,0.159,1.364,0.32,2.059,0.417
				c1.449,0.201,2.932,0.088,4.371-0.133c2.607-0.4,5.114-1.369,7.361-2.743c4.287-2.62,7.557-6.564,10.472-10.586
				c0.807-1.114,1.597-2.242,2.369-3.381c0.188-0.277,0.417-0.691,0.591-1.137c0.518,0.956,1.287,1.806,2.066,2.51
				c1.211,1.094,2.585,2.026,4.062,2.723c3.504,1.652,7.436,1.819,11.183,2.579c3.839,0.779,7.711,1.694,11.455,2.851
				c1.645,0.508,3.246,1.156,4.657,2.158c1.239,0.881,2.232,2.081,3.087,3.325c0.99,1.441,1.841,2.972,2.809,4.427
				c0.491,0.739,1.014,1.462,1.587,2.14c0.274,0.324,0.572,0.7,0.919,0.948c0.372,0.266,0.852,0.331,1.295,0.402
				C293.415,152.521,293.768,152.282,293.651,151.935z"/>
			<path style="fill:#866479;" d="M246.039,119.724c-0.13-0.19-0.384-0.145-0.464,0.061c-0.17,0.437-0.432,0.812-0.599,1.251
				c-0.187,0.493-0.321,1.003-0.536,1.486c-0.41,0.922-0.995,1.77-1.605,2.568c-1.282,1.677-2.67,3.292-4.135,4.811
				c-2.987,3.097-6.431,5.675-10.511,7.138c-1.109,0.398-2.262,0.705-3.428,0.885c-0.584,0.09-1.165,0.17-1.756,0.206
				c-0.581,0.036-1.197,0.028-1.756,0.202c-0.13,0.041-0.152,0.213-0.037,0.286c0.858,0.547,2.092,0.558,3.079,0.589
				c1.158,0.037,2.363-0.145,3.493-0.386c2.306-0.492,4.486-1.459,6.465-2.732c3.916-2.518,7.107-6.011,9.945-9.664
				c0.786-1.012,1.521-2.059,2.023-3.244c0.244-0.574,0.448-1.187,0.442-1.819C246.653,120.747,246.379,120.223,246.039,119.724z"/>
			<path style="fill:#866479;" d="M239.393,115.093c-0.195-0.077-0.32,0.169-0.247,0.321c0.387,0.813-0.32,1.943-0.771,2.586
				c-0.598,0.851-1.259,1.664-1.902,2.482c-1.362,1.734-2.762,3.441-4.313,5.011c-1.459,1.478-3.045,2.84-4.767,4.004
				c-1.675,1.132-3.545,1.883-5.229,2.986c-0.095,0.062-0.052,0.194,0.055,0.204c1.779,0.165,3.479-0.538,5.043-1.325
				c1.63-0.82,3.15-1.896,4.524-3.094c2.944-2.569,5.354-5.671,7.71-8.769c0.582-0.765,1.24-1.635,1.171-2.651
				C240.612,116.033,240.148,115.391,239.393,115.093z"/>
			<path style="fill:#866479;" d="M292.539,134.467c-1.071-1.129-2.183-2.219-3.349-3.249c-2.351-2.074-4.928-3.939-7.775-5.273
				c-3.105-1.455-6.32-2.089-9.727-2.32c-1.835-0.124-3.681-0.188-5.504-0.443c-1.627-0.228-3.229-0.593-4.805-1.054
				c-1.792-0.524-3.538-1.186-5.216-2.005c-0.833-0.407-1.653-0.845-2.457-1.304c-0.821-0.468-1.592-1.009-2.514-1.249
				c-0.098-0.025-0.184,0.083-0.132,0.172c0.781,1.336,2.432,2.263,3.732,3.034c1.402,0.832,2.864,1.553,4.369,2.177
				c3.086,1.28,6.363,2.049,9.689,2.347c1.881,0.169,3.776,0.222,5.645,0.507c1.555,0.238,3.078,0.641,4.547,1.204
				c2.806,1.077,5.388,2.755,7.694,4.667c1.352,1.121,2.63,2.329,3.852,3.59c1.239,1.278,2.346,2.814,3.995,3.58
				c0.325,0.151,0.729-0.098,0.625-0.481C294.78,136.792,293.635,135.623,292.539,134.467z"/>
			<path style="fill:#866479;" d="M295.938,127.538c-0.173-0.783-0.474-1.528-0.854-2.233c-0.735-1.368-1.777-2.614-2.882-3.697
				c-2.285-2.24-5.093-3.904-8.083-5.018c-7.292-2.715-15.257-2.373-22.874-3.305c-2.055-0.251-4.084-0.628-6.083-1.169
				c-1.005-0.272-1.987-0.597-2.963-0.961c-0.956-0.357-1.89-0.817-2.886-1.043c-0.138-0.031-0.221,0.125-0.133,0.229
				c1.103,1.287,2.869,2.001,4.408,2.623c1.677,0.678,3.421,1.164,5.186,1.551c3.631,0.795,7.341,1.096,11.036,1.419
				c6.87,0.601,14.246,1.391,19.762,5.963c1.294,1.073,2.459,2.306,3.377,3.717c0.457,0.703,0.882,1.43,1.301,2.155
				c0.409,0.708,0.942,1.379,1.266,2.124c0.112,0.257,0.513,0.116,0.51-0.138C296.016,129.001,296.104,128.285,295.938,127.538z"/>
			<path style="fill:#5C939D;" d="M213.381,319.999c0.003,0.001,0.005,0.002,0.007,0.003c-0.034-0.067-0.08-0.114-0.12-0.172
				c0.009-0.065,0.018-0.13,0.027-0.195c0.03-0.218-0.243-0.379-0.379-0.177c-0.699-0.513-1.754-0.369-2.612-0.245
				c-1.29,0.186-2.579,0.29-3.882,0.319c-1.28,0.029-2.551-0.064-3.823-0.191c-0.613-0.061-1.219-0.164-1.829-0.248
				c-0.614-0.085-1.288-0.281-1.903-0.149c-0.291,0.062-0.369,0.452-0.172,0.65c0.386,0.387,0.942,0.542,1.448,0.719
				c0.16,0.056,0.323,0.099,0.485,0.148c-0.339,0.083-0.677,0.166-1.016,0.249c-0.024,0.006-0.014,0.044,0.01,0.038
				c0.355-0.089,0.711-0.178,1.066-0.268c0.411,0.121,0.826,0.228,1.246,0.321c1.246,0.275,2.516,0.419,3.789,0.488
				c1.242,0.068,2.479,0.03,3.715-0.102c0.578-0.061,1.152-0.165,1.732-0.207c0.564-0.041,1.102,0.057,1.662-0.012
				C213.314,320.908,213.637,320.412,213.381,319.999z"/>
			<path style="fill:#5C939D;" d="M235.259,290.424c-1.027-0.355-2.229,0.11-3.253,0.312c-1.101,0.217-2.203,0.424-3.31,0.612
				c-2.248,0.382-4.508,0.694-6.776,0.934c-4.51,0.478-9.031,0.727-13.565,0.777c-1.242,0.013-2.484,0.007-3.725-0.021
				c-0.002,0-0.004,0-0.006,0c0.481-0.485,0.498-1.39,0.579-2.013c0.207-1.592,0.419-3.183,0.635-4.773
				c0.861-6.335,1.809-12.656,2.728-18.982c0.511-3.514,1.039-7.027,1.563-10.539c0.269-1.799,0.548-3.596,0.803-5.396
				c0.122-0.865,0.242-1.73,0.354-2.597c0.097-0.752,0.256-1.512-0.068-2.219c-0.015-0.033-0.063-0.034-0.086-0.011
				c-0.474,0.471-0.615,1.092-0.761,1.734c-0.192,0.842-0.379,1.684-0.556,2.529c-0.321,1.53-0.619,3.064-0.911,4.6
				c-0.601,3.154-1.174,6.313-1.718,9.478c-1.075,6.254-2.016,12.531-2.892,18.815c-0.222,1.595-0.44,3.19-0.654,4.786
				c-0.104,0.776-0.208,1.553-0.31,2.329c-0.09,0.685-0.35,1.698,0.166,2.275c-0.262,0.006-0.525-0.002-0.787,0.012
				c-0.542,0.029-1.159-0.036-1.638,0.253c-0.08,0.048-0.111,0.179-0.032,0.245c0.348,0.293,0.746,0.336,1.188,0.422
				c0.559,0.109,1.117,0.196,1.682,0.267c1.152,0.145,2.324,0.191,3.484,0.252c2.283,0.12,4.566,0.153,6.852,0.103
				c4.616-0.102,9.205-0.533,13.768-1.238c1.307-0.202,2.611-0.427,3.91-0.675c1.178-0.225,2.73-0.292,3.625-1.169
				C235.923,291.162,235.716,290.582,235.259,290.424z"/>
			<path style="fill:#5C939D;" d="M322.89,297.322c-0.584,0.257-1.242,0.153-1.836,0.37c-0.687,0.25-1.327,0.673-1.969,1.019
				c-0.838,0.452-1.693,0.868-2.546,1.29c-0.228-1.864-0.56-3.727-0.896-5.561c-0.232-1.269-0.476-2.537-0.78-3.791
				c-0.151-0.626-0.311-1.254-0.521-1.863c-0.1-0.291-0.183-0.646-0.342-0.91c-0.132-0.22-0.237-0.268-0.438-0.453
				c-0.084-0.077-0.195-0.036-0.235,0.062c-0.14,0.343-0.21,0.382-0.203,0.748c0.006,0.313,0.039,0.637,0.07,0.948
				c0.062,0.621,0.163,1.241,0.256,1.858c0.186,1.242,0.393,2.48,0.576,3.722c0.298,2.025,0.515,4.06,0.771,6.089
				c-2.357,1.1-4.761,2.096-7.211,2.97c-5.221,1.862-10.611,3.176-16.087,4.022c-1.527,0.236-3.062,0.432-4.596,0.619
				c-0.799,0.097-1.598,0.184-2.395,0.299c-0.743,0.107-1.529,0.124-2.192,0.491c-0.203,0.112-0.225,0.461,0,0.567
				c0.589,0.277,1.18,0.275,1.825,0.301c0.776,0.031,1.544,0.032,2.32-0.001c1.401-0.06,2.792-0.169,4.184-0.337
				c2.869-0.346,5.712-0.848,8.527-1.502c5.536-1.287,10.933-3.14,16.099-5.509c0.044,0.036,0.077,0.079,0.125,0.111
				c0.546,0.366,1.396-0.112,1.349-0.774c-0.001-0.012-0.003-0.024-0.004-0.037c0.985-0.475,1.964-0.962,2.929-1.476
				c0.713-0.379,1.45-0.748,2.113-1.211c0.615-0.43,0.873-1.146,1.455-1.606C323.519,297.555,323.163,297.202,322.89,297.322z"/>
			<path style="fill:#5C939D;" d="M307.705,329.432c-0.703-0.42-1.396-0.268-2.142-0.047c-0.844,0.25-1.687,0.499-2.539,0.723
				c-1.56,0.411-3.134,0.765-4.719,1.063c-3.195,0.601-6.432,0.96-9.68,1.092c-6.553,0.266-13.133-0.398-19.523-1.858
				c-1.751-0.4-3.488-0.861-5.203-1.393c-0.873-0.271-1.743-0.557-2.607-0.856c-0.744-0.258-1.489-0.695-2.256-0.366
				c-0.045,0.019-0.073,0.092-0.056,0.137c0.254,0.669,0.83,0.853,1.459,1.125c0.788,0.342,1.581,0.671,2.383,0.976
				c1.577,0.6,3.178,1.143,4.796,1.622c3.241,0.959,6.563,1.643,9.917,2.06c6.643,0.826,13.383,0.65,19.985-0.447
				c1.88-0.313,3.748-0.704,5.595-1.175c0.924-0.235,1.842-0.49,2.755-0.765c0.88-0.265,1.647-0.536,2.024-1.429
				C307.964,329.73,307.847,329.517,307.705,329.432z"/>
			<path style="fill:#5C939D;" d="M313.312,276.093c-0.182-1.159-0.372-2.317-0.57-3.473c-0.401-2.351-0.86-4.693-1.345-7.028
				c-0.961-4.624-2.166-9.215-3.415-13.769c-0.342-1.248-0.704-2.491-1.071-3.733c-0.195-0.66-0.387-1.322-0.613-1.971
				c-0.168-0.482-0.31-0.935-0.728-1.252c-0.053-0.04-0.118,0.007-0.138,0.056c-0.173,0.44-0.082,0.855,0.009,1.306
				c0.121,0.595,0.266,1.185,0.41,1.775c0.277,1.141,0.544,2.284,0.809,3.427c0.521,2.248,1.026,4.5,1.496,6.759
				c0.948,4.558,1.755,9.151,2.541,13.74c0.225,1.316,0.451,2.631,0.663,3.949c0.102,0.639,0.203,1.279,0.3,1.918
				c0.096,0.629,0.212,1.246,0.82,1.576c0.23,0.125,0.527,0.098,0.715-0.092C313.983,278.484,313.465,277.064,313.312,276.093z"/>
			<path style="fill:#5C939D;" d="M273.334,198.443c-0.204-0.118-0.487-0.05-0.604,0.158c-0.122,0.216-0.33,0.328-0.456,0.553
				c-0.138,0.247-0.233,0.493-0.409,0.72c-0.365,0.472-0.839,0.885-1.277,1.287c-0.885,0.812-1.836,1.543-2.845,2.194
				c-2.006,1.293-4.202,2.258-6.512,2.857c-4.614,1.197-9.548,0.798-13.929-1.079c-1.241-0.531-2.436-1.174-3.566-1.914
				c-1.134-0.743-2.133-1.676-3.41-2.175c-0.487-0.19-0.782,0.415-0.609,0.792c0.571,1.246,1.733,2.06,2.831,2.816
				c1.084,0.746,2.232,1.403,3.429,1.95c2.466,1.126,5.078,1.842,7.778,2.109c5.309,0.524,10.782-0.906,15.228-3.837
				C270.231,204.05,276.098,200.044,273.334,198.443z"/>
			<path style="fill:#5C939D;" d="M314.512,367.019c-3.978,1.298-7.952,2.501-12.037,3.425c-4.106,0.929-8.248,1.698-12.39,2.443
				c-8.449,1.52-16.948,2.796-25.507,3.499c-8.485,0.697-17.027,0.851-25.514,0.106c-8.302-0.729-16.491-2.392-24.528-4.571
				c-7.997-2.168-15.844-4.813-23.693-7.457c-0.997-0.336-1.988-0.601-3.014-0.823c-0.484-0.105-0.832,0.582-0.352,0.835
				c1.828,0.963,3.762,1.672,5.701,2.385c1.965,0.724,3.935,1.436,5.91,2.132c3.945,1.39,7.923,2.699,11.939,3.87
				c8.051,2.347,16.258,4.197,24.59,5.196c8.534,1.023,17.168,1.107,25.74,0.555c8.66-0.558,17.273-1.743,25.823-3.208
				c8.344-1.429,16.792-2.871,24.86-5.487c1.006-0.326,1.995-0.681,2.972-1.086C316.096,368.385,315.695,366.633,314.512,367.019z"
				/>
			<path style="fill:#71B8CB;" d="M208.819,376.258c0.026-0.078-0.087-0.12-0.129-0.054c-0.093,0.148-0.248,0.134-0.388,0.226
				c-0.175,0.115-0.311,0.324-0.434,0.489c-0.258,0.347-0.493,0.714-0.74,1.07c-0.519,0.748-1.029,1.5-1.579,2.226
				c-1.128,1.49-2.419,2.885-3.796,4.147c-1.378,1.263-2.863,2.401-4.458,3.376c-0.778,0.476-1.579,0.917-2.4,1.314
				c-0.878,0.424-1.933,0.996-2.921,0.969c-0.199-0.006-0.295,0.25-0.16,0.387c1.678,1.705,4.071,0.29,5.742-0.683
				c1.798-1.047,3.504-2.291,5.032-3.704c1.531-1.416,2.888-2.992,4.064-4.714c0.581-0.851,1.134-1.745,1.569-2.68
				c0.208-0.447,0.428-0.914,0.565-1.388c0.053-0.185,0.119-0.385,0.086-0.578C208.841,376.482,208.761,376.432,208.819,376.258z"/>
			<path style="fill:#71B8CB;" d="M310.597,388.146c-0.242,0.047-0.641-0.334-0.806-0.422c-0.357-0.19-0.745-0.33-1.117-0.488
				c-0.761-0.323-1.504-0.677-2.22-1.092c-1.429-0.828-2.731-1.843-3.948-2.956c-1.249-1.142-2.411-2.382-3.532-3.649
				c-0.571-0.645-1.131-1.301-1.706-1.942c-0.445-0.495-0.931-1.251-1.638-1.326c-0.263-0.028-0.47,0.285-0.396,0.519
				c0.008,0.025,0.021,0.04,0.03,0.063c-0.002,0-0.003,0-0.005,0.001c0.007,0.015,0.02,0.03,0.027,0.045
				c0.016,0.033,0.033,0.068,0.056,0.092c0.142,0.247,0.328,0.493,0.467,0.74c0.226,0.401,0.478,0.79,0.738,1.17
				c0.528,0.771,1.073,1.525,1.651,2.259c1.132,1.437,2.352,2.791,3.716,4.013c1.338,1.199,2.825,2.268,4.422,3.094
				c1.215,0.629,3.659,1.99,4.569,0.28C311.023,388.328,310.831,388.101,310.597,388.146z"/>
			<g>
				<path style="fill:#694F5E;" d="M252.89,145.307c-0.359-0.34-0.849-0.525-1.308-0.684c-0.614-0.212-1.309-0.317-1.958-0.294
					c-0.74,0.027-1.436,0.23-2.108,0.525c-0.251,0.11-0.492,0.238-0.717,0.394c-0.357,0.248-0.6,0.571-0.812,0.944
					c-0.411,0.723,0.269,1.629,1.081,1.406c0.218-0.06,0.447-0.077,0.66-0.149c0.236-0.08,0.469-0.156,0.714-0.202
					c0.024-0.005,0.049-0.009,0.075-0.013c0.002,0,0.001,0,0.002,0c0.118-0.005,0.234-0.016,0.352-0.017
					c0.245-0.002,0.485,0.026,0.728,0.049c0.022,0.003,0.043,0.007,0.064,0.011c0.117,0.022,0.232,0.049,0.346,0.081
					c0.105,0.029,0.208,0.066,0.312,0.1c-0.029-0.015-0.044-0.022-0.085-0.044c0.045,0.025,0.096,0.043,0.142,0.066
					c0.002,0.001,0.005,0.003,0.007,0.004c0.05,0.021,0.089,0.044,0.086,0.047c0.239,0.126,0.462,0.272,0.712,0.378
					c0.473,0.2,0.893,0.294,1.413,0.173c0.599-0.14,0.954-0.72,0.987-1.297C253.618,146.204,253.297,145.693,252.89,145.307z"/>
				<path style="fill:#694F5E;" d="M250.349,147.468c-0.009-0.003-0.019-0.006-0.028-0.009c0.096,0.051,0.148,0.075,0.151,0.072
					c-0.029-0.015-0.056-0.033-0.086-0.047C250.372,147.478,250.361,147.472,250.349,147.468z"/>
			</g>
			<path style="fill:#694F5E;" d="M278.647,149.017c-0.344-0.749-1.008-1.08-1.727-1.376c-0.481-0.198-1.059-0.355-1.579-0.318
				c-0.622,0.044-1.177,0.158-1.728,0.457c-0.422,0.23-0.96,0.576-1.195,1.009c-0.141,0.259-0.151,0.567,0,0.826
				c0.159,0.273,0.41,0.368,0.706,0.405c0.238,0.03,0.5-0.013,0.744,0c0.033,0.006,0.066,0.012,0.1,0.019
				c0.124,0.026,0.244,0.063,0.368,0.089c0.428,0.089,0.862,0.212,1.277,0.364c0.16,0.076,0.32,0.153,0.468,0.251
				c0.29,0.193,0.595,0.302,0.924,0.411c0.551,0.182,1.192-0.084,1.53-0.522C278.913,150.141,278.898,149.565,278.647,149.017z"/>
			<path style="fill:#694F5E;" d="M251.741,154.194c-0.275-0.461-0.815-0.9-1.355-1.021c-0.581-0.13-1.232-0.102-1.748,0.224
				c-0.489,0.309-0.9,0.76-1.042,1.328c-0.201,0.8-0.33,1.606-0.417,2.426c-0.119,1.112-0.291,2.383,0.619,3.247
				c0.393,0.373,1.005,0.659,1.564,0.635c0.196-0.026,0.392-0.052,0.588-0.077c0.375-0.103,0.7-0.289,0.976-0.557
				c0.735-0.628,0.707-1.549,0.776-2.409c0.028-0.354,0.067-0.707,0.114-1.059c0.038-0.271,0.076-0.541,0.112-0.812
				c0-0.001,0-0.002,0-0.003c-0.022,0.162-0.044,0.324-0.067,0.486c0.032-0.233,0.068-0.465,0.108-0.696
				C252.092,155.317,252.058,154.726,251.741,154.194z"/>
			<path style="fill:#694F5E;" d="M275.778,157.218c-0.275-0.461-0.815-0.9-1.355-1.021c-0.581-0.13-1.232-0.102-1.748,0.224
				c-0.489,0.309-0.9,0.76-1.042,1.328c-0.201,0.8-0.33,1.606-0.417,2.426c-0.119,1.112-0.291,2.383,0.619,3.247
				c0.393,0.373,1.004,0.659,1.564,0.635c0.196-0.026,0.392-0.052,0.588-0.077c0.375-0.103,0.7-0.289,0.976-0.557
				c0.735-0.628,0.707-1.549,0.776-2.409c0.028-0.354,0.067-0.707,0.114-1.059c0.038-0.271,0.076-0.541,0.112-0.812
				c0-0.001,0-0.002,0.001-0.003c-0.022,0.162-0.044,0.324-0.067,0.486c0.032-0.233,0.068-0.465,0.108-0.697
				C276.129,158.341,276.095,157.749,275.778,157.218z"/>
			<path style="fill:#E0A484;" d="M263.659,166.036c-0.194-0.031-0.026-0.045-0.331-0.129c-0.235-0.065-0.449-0.023-0.671,0.054
				c-0.268,0.093-0.535,0.169-0.795,0.283c-0.024,0.011-0.049,0.022-0.073,0.033c-0.011,0.004-0.013,0.004-0.048,0.018
				c-0.103,0.034-0.204,0.073-0.309,0.103c-0.104,0.03-0.21,0.056-0.316,0.077c-0.014,0.003-0.027,0.005-0.04,0.007
				c-0.159,0.005-0.313,0.007-0.471,0c-0.024-0.005-0.049-0.009-0.073-0.014c-0.085-0.019-0.169-0.042-0.252-0.069
				c-0.016-0.005-0.032-0.012-0.048-0.018c-0.008-0.004-0.002-0.001-0.014-0.007c-0.127-0.076-0.264-0.131-0.404-0.177
				c-0.199-0.064-0.376-0.11-0.588-0.13c-0.409-0.039-0.76,0.38-0.76,0.759c0.001,1.24,1.539,1.709,2.551,1.712
				c0.525,0.001,1.064-0.111,1.557-0.29c0.302-0.11,0.558-0.255,0.819-0.438c0.191-0.134,0.397-0.265,0.517-0.471
				c0.128-0.219,0.095-0.408,0.162-0.574C264.185,166.492,263.95,166.082,263.659,166.036z"/>
			<g>
				<polygon style="fill:#D06953;" points="262.724,174.52 262.731,174.52 262.735,174.521 				"/>
				<path style="fill:#D06953;" d="M262.735,174.521c0.146,0.02,0.291,0.039,0.437,0.059
					C263.017,174.557,262.875,174.537,262.735,174.521z"/>
				<path style="fill:#D06953;" d="M264.188,175.338c-0.07-0.121-0.158-0.234-0.257-0.332c-0.349-0.349-0.732-0.428-1.2-0.485
					c-0.26-0.029-0.51-0.034-0.801,0.049c-0.139,0.04-0.276,0.074-0.418,0.101c-0.196,0.037-0.387,0.095-0.58,0.145
					c-0.157,0.011-0.314,0.009-0.47,0c-0.152-0.034-0.303-0.067-0.45-0.121c-0.139-0.065-0.279-0.126-0.428-0.171
					c-0.085-0.026-0.168-0.055-0.252-0.084c-0.057-0.027-0.113-0.055-0.172-0.08c-0.345-0.146-0.69-0.148-1.027-0.055
					c-0.337,0.053-0.698,0.252-0.834,0.559c-0.011,0.025-0.021,0.051-0.032,0.077c-0.246,0.388-0.336,0.837-0.194,1.311
					c0.058,0.195,0.177,0.44,0.285,0.628c0.26,0.456,0.597,0.822,1.047,1.097c0.707,0.432,1.488,0.626,2.303,0.707
					c0.781,0.078,1.699-0.02,2.37-0.447c0.561-0.357,1.089-0.799,1.246-1.481C264.436,176.274,264.449,175.784,264.188,175.338z"/>
			</g>
			<path style="fill:#E0A484;" d="M248.862,316.915c-0.005-0.007-0.038-0.068-0.018-0.024c-0.01-0.02-0.024-0.035-0.034-0.053
				c-0.026-0.098-0.065-0.188-0.143-0.27c0.026,0.034,0.053,0.068,0.079,0.103c-0.024-0.032-0.045-0.064-0.07-0.096
				c-0.051-0.066-0.111-0.112-0.18-0.159c-0.079-0.054-0.158-0.094-0.249-0.13c-0.101-0.041-0.208-0.071-0.312-0.103
				c-0.224-0.067-0.457-0.099-0.688-0.123c-0.001-0.001-0.002-0.001-0.003-0.001c0.039,0.005,0.078,0.01,0.117,0.016
				c-0.029-0.004-0.057-0.012-0.086-0.018c-0.012-0.003-0.024,0.002-0.036,0c-0.043-0.023-0.086-0.033-0.13-0.043
				c-0.089-0.085-0.251-0.105-0.333-0.002c-0.042,0.053-0.066,0.105-0.083,0.16c-0.069,0.099-0.116,0.228-0.071,0.341
				c0.028,0.071,0.057,0.14,0.094,0.207c-0.02-0.076-0.041-0.151-0.061-0.227c0,0.214,0.12,0.385,0.283,0.511
				c0.12,0.093,0.251,0.145,0.389,0.204c0.158,0.067,0.316,0.128,0.479,0.181c0.104,0.033,0.202,0.054,0.314,0.06
				c0.036,0.002,0.073,0.004,0.109,0.004c0.124,0,0.201-0.034,0.312-0.083c-0.042,0.017-0.084,0.035-0.125,0.053
				c0.102-0.031,0.187-0.072,0.263-0.141c0.012-0.004,0.024-0.008,0.037-0.013C248.852,317.223,248.958,317.049,248.862,316.915z"/>
			<path style="fill:#E0A484;" d="M257.026,312.498c-0.018-0.003-0.036-0.002-0.054-0.004c-0.048-0.026-0.099-0.044-0.149-0.053
				c-0.064-0.011-0.128-0.012-0.191-0.015c-0.055-0.016-0.111-0.026-0.175-0.025c-0.04,0.001-0.08,0.003-0.12,0.005
				c-0.081,0.002-0.162-0.003-0.242-0.013c0.054,0.007,0.109,0.015,0.163,0.022c-0.081-0.012-0.162-0.02-0.244-0.028
				c-0.121-0.019-0.244-0.047-0.359-0.084c-0.015-0.005-0.059-0.022-0.067-0.024c-0.034-0.015-0.068-0.031-0.102-0.043
				c-0.031-0.011-0.065-0.012-0.098-0.019c-0.013-0.007-0.027-0.013-0.04-0.02c-0.29-0.153-0.632,0.099-0.551,0.423
				c0.011,0.043,0.025,0.083,0.037,0.125c0-0.002,0.001-0.004,0.001-0.006c0.044,0.198,0.189,0.387,0.336,0.509
				c0.198,0.164,0.424,0.283,0.677,0.342c0.243,0.057,0.54,0.04,0.777-0.035c0.083-0.026,0.147-0.072,0.211-0.121
				c-0.008,0.009-0.009,0.013,0.015,0.004c0.07-0.027,0.131-0.081,0.18-0.137c0.069-0.081,0.131-0.161,0.165-0.264
				c0.004-0.021,0.003-0.019,0.005-0.035c0.005-0.012,0.004-0.009,0.01-0.025c0.004-0.016,0.004-0.033,0.006-0.049
				c0.007-0.017,0.018-0.033,0.022-0.051C257.272,312.725,257.197,312.528,257.026,312.498z"/>
			<path style="fill:#697FA8;" d="M255.226,275.511c-0.797,0.279-1.325,1.289-1.829,1.923c-0.588,0.739-1.181,1.473-1.78,2.203
				c-1.248,1.521-2.51,3.03-3.799,4.517c-1.289,1.486-2.594,2.961-3.904,4.429c-0.629,0.705-1.264,1.405-1.898,2.107
				c-0.629,0.697-1.353,1.375-1.824,2.194c-0.017,0.03,0.018,0.066,0.048,0.048c0.809-0.483,1.469-1.226,2.135-1.884
				c0.671-0.663,1.331-1.338,1.987-2.017c1.394-1.444,2.743-2.925,4.065-4.436c1.294-1.481,2.569-2.979,3.811-4.504
				c0.621-0.763,1.236-1.531,1.846-2.303c0.479-0.607,1.269-1.321,1.336-2.13C255.426,275.563,255.315,275.48,255.226,275.511z"/>
			<path style="fill:#697FA8;" d="M268.289,276.185c-1.745-0.464-3.588-0.559-5.377-0.748c-0.908-0.096-1.816-0.197-2.724-0.302
				c-0.784-0.091-1.867-0.354-2.622-0.063c-0.02,0.007-0.022,0.03-0.006,0.043c0.599,0.438,1.595,0.468,2.313,0.563
				c0.941,0.124,1.885,0.236,2.828,0.346c1.832,0.214,3.714,0.5,5.561,0.352C268.369,276.368,268.401,276.214,268.289,276.185z"/>
			<path style="fill:#697FA8;" d="M314.479,281.322c-1.036-0.403-2.09-0.528-3.185-0.659c-1.134-0.135-2.272-0.241-3.41-0.339
				c-2.153-0.186-4.454-0.475-6.605-0.172c-0.043,0.006-0.039,0.073,0,0.083c2.088,0.522,4.347,0.553,6.483,0.765
				c1.097,0.109,2.192,0.236,3.288,0.357c1.143,0.126,2.251,0.283,3.402,0.164C314.567,281.51,314.588,281.365,314.479,281.322z"/>
			<path style="fill:#FBFCFF;" d="M290.968,278.311c-0.146-0.36-0.42-0.501-0.805-0.62c-0.676-0.209-1.468-0.248-2.169-0.347
				c-1.469-0.209-2.944-0.368-4.423-0.487c-1.461-0.118-2.924-0.192-4.389-0.248c-0.734-0.028-1.464-0.035-2.198-0.028
				c-0.628,0.006-1.403-0.041-1.947,0.316c-0.156,0.102-0.139,0.293,0,0.398c0.435,0.329,1.051,0.368,1.581,0.418
				c0.691,0.065,1.383,0.124,2.076,0.16c1.343,0.07,2.684,0.156,4.025,0.259c1.298,0.1,2.594,0.224,3.885,0.389
				c0.705,0.09,1.409,0.194,2.11,0.312c0.63,0.105,1.254,0.317,1.884,0.13C290.849,278.888,291.078,278.582,290.968,278.311z"/>
			<path style="fill:#FBFCFF;" d="M295.717,279.167c-0.017-0.063-0.049-0.119-0.088-0.17c-0.021-0.036-0.05-0.065-0.086-0.086
				c-0.056-0.043-0.065-0.05-0.025-0.02c0.078,0.045-0.071-0.058-0.057-0.047c-0.043-0.033-0.092-0.049-0.14-0.07
				c-0.312-0.176-0.734-0.152-1.08-0.166c-0.187-0.007-0.381,0.015-0.564,0.046c-0.078,0.013-0.159,0.022-0.235,0.046
				c-0.054,0.017-0.105,0.044-0.157,0.065c-0.01,0.002-0.054,0.016-0.067,0.02c-0.07,0.021-0.131,0.069-0.179,0.128
				c-0.01,0.01-0.019,0.021-0.029,0.031c-0.072,0.077-0.102,0.21-0.039,0.303c0.008,0.012,0.016,0.024,0.025,0.037
				c0.029,0.066,0.072,0.125,0.137,0.157c0.023,0.011,0.046,0.024,0.069,0.033c-0.008-0.008-0.016-0.017-0.023-0.025l0.087,0.067
				c0.066,0.046,0.141,0.077,0.215,0.106c0.103,0.04,0.21,0.076,0.317,0.102c0.264,0.065,0.534,0.091,0.803,0.123
				c0.112,0.014,0.224,0.032,0.337,0.031c0.116-0.002,0.226-0.022,0.333-0.067c0.233-0.098-0.151,0.065,0.07-0.028
				c0.044-0.019,0.071-0.033,0.11-0.056C295.648,279.609,295.782,279.407,295.717,279.167z"/>
		</g>
		<path style="fill:#E8BBA6;" d="M342.567,425.207c0,0-16.858-45.077-11.102-78.174c5.756-33.097,16.788-48.926,11.032-69.072
			c-5.756-20.146-10.553-35.495-3.358-50.845c7.195-15.349,17.748-12.951,22.065-3.837c4.317,9.114,29.739,49.886,30.219,73.389
			c0.48,23.504,2.878,99.771,5.276,112.243"/>
		<path style="fill:#E8BBA6;" d="M151.328,311.328c-16.025,2.49-19.889,19.538-11.805,25.773c8.084,6.235,24.686,7.503,35.079,5.386
			s13.568-19.43,3.937-25.22C168.909,311.478,162.191,309.641,151.328,311.328z"/>
		<path style="fill:#E8BBA6;" d="M151.588,281.798c-17.691,1.415-23.219,18.837-14.87,25.902c8.349,7.065,26.382,9.593,37.894,8.154
			c11.512-1.439,16.309-19.187,6.236-25.902C170.775,283.237,163.58,280.839,151.588,281.798z"/>
		<path style="fill:#E8BBA6;" d="M154.466,251.099c-17.691,1.415-23.219,18.837-14.87,25.902c8.349,7.065,26.382,9.593,37.894,8.154
			c11.512-1.439,16.309-19.187,6.236-25.902C173.653,252.538,166.458,250.14,154.466,251.099z"/>
		<path style="fill:#E0A484;" d="M350.98,433.296c-0.843-3.543-2.916-6.322-4.633-9.466c-1.699-3.11-2.879-6.42-3.829-9.826
			c-1.987-7.119-3.54-14.403-4.924-21.661c-2.773-14.54-4.099-29.268-3.116-44.058c0.267-4.018,0.749-8.018,1.486-11.977
			c0.751-4.036,1.662-7.957,2.017-12.053c0.029-0.332-0.425-0.393-0.582-0.158c-4.07,6.07-5.367,13.787-6.397,20.91
			c-1.07,7.403-1.32,14.916-0.974,22.385c0.718,15.482,3.881,30.987,7.756,45.961c1.061,4.101,2.377,8.141,4.333,11.912
			c1.856,3.575,4.031,7.014,7.688,8.936C350.427,434.529,351.144,433.988,350.98,433.296z"/>
		<path style="fill:#E0A484;" d="M176.127,284.312c-1.114-0.141-2.299,0.001-3.426-0.007c-1.152-0.008-2.303-0.013-3.455-0.02
			c-2.209-0.013-4.44-0.202-6.623-0.533c-2.186-0.331-4.35-0.804-6.494-1.341c-1.075-0.269-2.151-0.529-3.229-0.786
			c-1.105-0.263-2.256-0.697-3.399-0.668c-0.617,0.016-0.75,0.76-0.296,1.092c0.918,0.671,2.143,0.971,3.203,1.36
			c1.193,0.438,2.389,0.838,3.609,1.196c2.265,0.665,4.556,1.25,6.881,1.667c2.251,0.403,4.522,0.656,6.811,0.598
			c2.136-0.054,4.855-0.481,6.646-1.721C176.741,284.881,176.567,284.368,176.127,284.312z"/>
		<path style="fill:#E0A484;" d="M174.882,313.066c-4.488,0.221-8.937,0.859-13.432,0.958c-4.653,0.103-9.15-0.736-13.731-1.377
			c-0.203-0.029-0.36,0.238-0.15,0.357c4.1,2.328,9,3.182,13.655,3.487c4.818,0.316,9.622-0.257,13.875-2.625
			C175.463,313.664,175.312,313.045,174.882,313.066z"/>
		<path style="fill:#F2DAC7;" d="M184.549,269.008c-0.19-1.408-0.477-2.836-1.391-4.058c-0.85-1.136-2.076-2.061-3.457-2.726
			c-3.338-1.607-7.172-1.529-10.826-2.211c-1.248-0.233-2.54,0.31-2.899,1.382c-0.32,0.957-0.575,1.931-0.798,2.91
			c-0.817,1.854-1.036,3.986-1.065,5.896c-0.036,2.328,0.32,4.644,0.68,6.948c0.093,0.596,0.4,1.293,0.976,1.717
			c0.398,0.408,0.991,0.651,1.615,0.706c1.341,0.375,2.74,0.492,4.16,0.605c1.584,0.127,3.101,0.13,4.677-0.083
			c2.978-0.405,5.569-1.886,6.959-4.149C184.487,273.813,184.869,271.374,184.549,269.008z"/>
		<path style="fill:#F2DAC7;" d="M183.326,299.887c-0.19-1.408-0.477-2.836-1.391-4.058c-0.85-1.136-2.076-2.061-3.457-2.726
			c-3.338-1.607-7.172-1.529-10.826-2.211c-1.248-0.233-2.54,0.31-2.899,1.382c-0.32,0.957-0.575,1.931-0.798,2.91
			c-0.817,1.854-1.036,3.986-1.065,5.896c-0.036,2.328,0.32,4.644,0.68,6.948c0.093,0.596,0.4,1.293,0.976,1.717
			c0.398,0.408,0.991,0.651,1.615,0.706c1.341,0.375,2.74,0.492,4.16,0.605c1.584,0.127,3.101,0.13,4.677-0.083
			c2.978-0.405,5.569-1.886,6.959-4.149C183.264,304.692,183.646,302.253,183.326,299.887z"/>
		<path style="fill:#F2DAC7;" d="M179.979,328.178c-0.162-1.199-0.406-2.414-1.184-3.454c-0.723-0.967-1.767-1.755-2.943-2.321
			c-2.841-1.368-6.105-1.301-9.215-1.882c-1.062-0.198-2.162,0.264-2.468,1.177c-0.273,0.815-0.489,1.644-0.679,2.477
			c-0.696,1.578-0.882,3.393-0.906,5.018c-0.03,1.981,0.272,3.953,0.578,5.914c0.079,0.507,0.341,1.101,0.831,1.461
			c0.339,0.347,0.844,0.554,1.375,0.601c1.142,0.319,2.332,0.419,3.541,0.515c1.348,0.108,2.64,0.111,3.981-0.071
			c2.535-0.344,4.74-1.606,5.923-3.532C179.926,332.269,180.251,330.193,179.979,328.178z"/>
		<g>
			<path style="fill:#FFFFFF;" d="M393.608,114.583h-70.011c-4.327,0-7.835,3.508-7.835,7.835c-0.001,8.387,0,16.774,0,25.161
				c0,4.348,0.016,8.697,0,13.045c-0.009,2.378,0.537,4.865-0.03,7.214c-0.609,2.522-2.565,4.291-3.938,6.404
				c-1.045,1.608,0.692,3.846,2.511,3.266c2.044-0.651,4.136-1.145,6.184-1.792c9.233-2.915,19.002-1.61,28.502-1.61
				c8.852,0,17.704,0,26.556,0c6.021,0,12.041,0,18.062,0c4.327,0,7.835-3.508,7.835-7.835v-43.854
				C401.443,118.091,397.935,114.583,393.608,114.583z"/>
			<path style="fill:#96A5B4;" d="M333.427,145.469c-0.044-0.393-0.155-0.767-0.341-1.121c-0.17-0.522-0.46-0.973-0.87-1.354
				c-0.381-0.41-0.832-0.7-1.354-0.87c-0.501-0.263-1.042-0.384-1.621-0.362c-0.579-0.022-1.12,0.099-1.621,0.362
				c-0.522,0.17-0.973,0.46-1.354,0.87c-0.219,0.284-0.439,0.568-0.658,0.852c-0.381,0.656-0.572,1.364-0.574,2.123
				c0.05,0.373,0.1,0.746,0.15,1.118c0.2,0.713,0.56,1.331,1.082,1.856l0.851,0.658c0.483,0.307,1.004,0.474,1.564,0.499
				c0.003,0.001,0.006,0.001,0.009,0.001c0.13,0.026,0.26,0.048,0.39,0.061c0.021,0.002,0.041,0.003,0.062,0.004
				c0.469,0.04,0.939,0.006,1.408-0.12c0.68-0.191,1.27-0.535,1.771-1.032c0.497-0.501,0.841-1.091,1.032-1.771
				C333.513,146.652,333.532,146.061,333.427,145.469z"/>
			<path style="fill:#96A5B4;" d="M353.403,145.469c-0.044-0.393-0.155-0.767-0.341-1.121c-0.17-0.522-0.46-0.973-0.87-1.354
				c-0.381-0.41-0.832-0.7-1.354-0.87c-0.501-0.263-1.042-0.384-1.621-0.362c-0.579-0.022-1.12,0.099-1.621,0.362
				c-0.522,0.17-0.973,0.46-1.354,0.87c-0.219,0.284-0.439,0.568-0.658,0.852c-0.381,0.656-0.572,1.364-0.574,2.123
				c0.05,0.373,0.1,0.746,0.15,1.118c0.2,0.713,0.561,1.331,1.082,1.856l0.851,0.658c0.483,0.307,1.004,0.474,1.564,0.499
				c0.003,0.001,0.006,0.001,0.009,0.001c0.13,0.026,0.26,0.048,0.39,0.061c0.021,0.002,0.041,0.003,0.062,0.004
				c0.469,0.04,0.939,0.006,1.408-0.12c0.68-0.191,1.27-0.535,1.771-1.032c0.497-0.501,0.841-1.091,1.032-1.771
				C353.49,146.652,353.509,146.061,353.403,145.469z"/>
			<path style="fill:#96A5B4;" d="M373.379,145.469c-0.044-0.393-0.155-0.767-0.341-1.121c-0.17-0.522-0.46-0.973-0.87-1.354
				c-0.381-0.41-0.832-0.7-1.354-0.87c-0.501-0.263-1.042-0.384-1.621-0.362c-0.579-0.022-1.119,0.099-1.621,0.362
				c-0.522,0.17-0.973,0.46-1.354,0.87c-0.219,0.284-0.439,0.568-0.658,0.852c-0.381,0.656-0.572,1.364-0.574,2.123
				c0.05,0.373,0.1,0.746,0.15,1.118c0.2,0.713,0.561,1.331,1.082,1.856l0.851,0.658c0.483,0.307,1.004,0.474,1.564,0.499
				c0.003,0.001,0.006,0.001,0.009,0.001c0.13,0.026,0.26,0.048,0.39,0.061c0.021,0.002,0.041,0.003,0.062,0.004
				c0.469,0.04,0.939,0.006,1.408-0.12c0.68-0.191,1.27-0.535,1.771-1.032c0.497-0.501,0.841-1.091,1.032-1.771
				C373.466,146.652,373.485,146.061,373.379,145.469z"/>
			<path style="fill:#96A5B4;" d="M393.356,145.469c-0.044-0.393-0.155-0.767-0.341-1.121c-0.17-0.522-0.46-0.973-0.87-1.354
				c-0.381-0.41-0.832-0.7-1.354-0.87c-0.501-0.263-1.042-0.384-1.621-0.362c-0.579-0.022-1.119,0.099-1.621,0.362
				c-0.522,0.17-0.973,0.46-1.354,0.87c-0.219,0.284-0.439,0.568-0.658,0.852c-0.381,0.656-0.572,1.364-0.574,2.123
				c0.05,0.373,0.1,0.746,0.15,1.118c0.2,0.713,0.561,1.331,1.082,1.856l0.852,0.658c0.483,0.307,1.004,0.474,1.564,0.499
				c0.003,0.001,0.006,0.001,0.009,0.001c0.13,0.026,0.26,0.048,0.39,0.061c0.021,0.002,0.041,0.003,0.062,0.004
				c0.469,0.04,0.939,0.006,1.408-0.12c0.68-0.191,1.27-0.535,1.771-1.032c0.497-0.501,0.841-1.091,1.032-1.771
				C393.442,146.652,393.461,146.061,393.356,145.469z"/>
		</g>
		<g>
			<path style="fill:#ECF5FD;" d="M229.937,60.539c-22.048,21.885-44.124,43.744-66.074,65.728v39.781
				c34.434-34.088,68.452-68.602,102.628-102.947c0.776-0.779,1.423-1.646,1.97-2.561H229.937z"/>
			<path style="fill:#ECF5FD;" d="M190.804,60.539c-9.004,9.035-17.975,18.103-26.942,27.174v12.302
				c4.576-4.596,9.132-9.212,13.718-13.799c8.581-8.583,17.202-17.128,25.817-25.678H190.804z"/>
		</g>
		<path style="fill:#4C6381;" d="M258.879,69.205c-0.001-0.416-0.106-0.804-0.315-1.163c-0.109-0.39-0.307-0.729-0.593-1.017
			c-0.205-0.347-0.481-0.622-0.827-0.827c-0.288-0.286-0.627-0.483-1.017-0.593c-0.359-0.209-0.747-0.313-1.163-0.315
			c-0.409-0.11-0.817-0.11-1.226,0c-0.613,0.028-1.185,0.21-1.714,0.547c-0.006,0.005-0.013,0.009-0.019,0.013
			c-0.69,0.408-1.24,0.958-1.648,1.648c-0.336,0.527-0.517,1.096-0.545,1.708c-0.137,0.61-0.109,1.221,0.082,1.832
			c0.218,0.778,0.612,1.454,1.181,2.027c0.005,0.004,0.011,0.008,0.016,0.013l0.933,0.721c0.367,0.155,0.734,0.31,1.101,0.465
			c0.409,0.055,0.817,0.11,1.226,0.165c0.409-0.055,0.817-0.11,1.225-0.165c0.367-0.155,0.734-0.31,1.101-0.465
			c0.311-0.24,0.622-0.48,0.933-0.721c0.24-0.311,0.481-0.622,0.721-0.933c0.337-0.529,0.519-1.101,0.547-1.714
			C258.989,70.022,258.989,69.613,258.879,69.205z"/>
		<g>
			<path style="fill:#FFFFFF;" d="M122.465,141.64h60.84c3.76,0,6.809,3.048,6.809,6.809c0,7.288,0,14.577,0,21.866
				c0,3.779-0.014,7.558,0,11.336c0.008,2.066-0.466,4.228,0.026,6.27c0.529,2.191,2.229,3.729,3.423,5.565
				c0.908,1.398-0.602,3.342-2.182,2.839c-1.776-0.566-3.594-0.995-5.374-1.557c-8.024-2.533-16.513-1.399-24.768-1.399
				c-7.692,0-15.385,0-23.078,0c-5.232,0-10.464,0-15.696,0c-3.76,0-6.809-3.048-6.809-6.809v-38.11
				C115.656,144.689,118.705,141.64,122.465,141.64z"/>
			<path style="fill:#96A5B4;" d="M174.763,168.022c0.038-0.341,0.134-0.667,0.296-0.974c0.148-0.453,0.4-0.845,0.756-1.177
				c0.331-0.357,0.723-0.609,1.177-0.756c0.436-0.229,0.905-0.334,1.409-0.315c0.503-0.019,0.973,0.086,1.409,0.315
				c0.453,0.147,0.845,0.399,1.177,0.756c0.191,0.247,0.381,0.493,0.572,0.74c0.331,0.57,0.497,1.185,0.499,1.845
				c-0.044,0.324-0.087,0.648-0.131,0.972c-0.174,0.619-0.487,1.157-0.94,1.613l-0.74,0.572c-0.42,0.267-0.873,0.412-1.359,0.434
				c-0.003,0.001-0.005,0.001-0.008,0.001c-0.113,0.023-0.226,0.042-0.339,0.053c-0.018,0.002-0.036,0.002-0.054,0.004
				c-0.408,0.035-0.816,0.005-1.224-0.105c-0.591-0.166-1.104-0.465-1.539-0.897c-0.432-0.435-0.731-0.948-0.897-1.539
				C174.688,169.05,174.672,168.536,174.763,168.022z"/>
			<path style="fill:#96A5B4;" d="M157.404,168.022c0.038-0.341,0.134-0.667,0.296-0.974c0.147-0.453,0.399-0.845,0.756-1.177
				c0.331-0.357,0.723-0.609,1.177-0.756c0.436-0.229,0.905-0.334,1.409-0.315c0.503-0.019,0.973,0.086,1.409,0.315
				c0.453,0.147,0.845,0.399,1.177,0.756c0.191,0.247,0.381,0.493,0.572,0.74c0.331,0.57,0.497,1.185,0.499,1.845
				c-0.044,0.324-0.087,0.648-0.131,0.972c-0.174,0.619-0.487,1.157-0.94,1.613l-0.74,0.572c-0.42,0.267-0.873,0.412-1.359,0.434
				c-0.003,0.001-0.005,0.001-0.008,0.001c-0.113,0.023-0.226,0.042-0.339,0.053c-0.018,0.002-0.036,0.002-0.054,0.004
				c-0.408,0.035-0.816,0.005-1.224-0.105c-0.591-0.166-1.104-0.465-1.539-0.897c-0.432-0.435-0.731-0.948-0.897-1.539
				C157.328,169.05,157.312,168.536,157.404,168.022z"/>
			<path style="fill:#96A5B4;" d="M140.044,168.022c0.038-0.341,0.134-0.667,0.296-0.974c0.147-0.453,0.399-0.845,0.756-1.177
				c0.331-0.357,0.723-0.609,1.177-0.756c0.436-0.229,0.905-0.334,1.409-0.315c0.503-0.019,0.973,0.086,1.409,0.315
				c0.453,0.147,0.845,0.399,1.177,0.756c0.191,0.247,0.381,0.493,0.572,0.74c0.331,0.57,0.497,1.185,0.499,1.845
				c-0.043,0.324-0.087,0.648-0.131,0.972c-0.174,0.619-0.487,1.157-0.94,1.613l-0.74,0.572c-0.42,0.267-0.873,0.412-1.359,0.434
				c-0.003,0.001-0.005,0.001-0.008,0.001c-0.113,0.023-0.226,0.042-0.339,0.053c-0.018,0.002-0.036,0.002-0.054,0.004
				c-0.408,0.035-0.816,0.005-1.224-0.105c-0.591-0.166-1.104-0.465-1.539-0.897c-0.432-0.435-0.731-0.948-0.897-1.539
				C139.969,169.05,139.952,168.536,140.044,168.022z"/>
			<path style="fill:#96A5B4;" d="M122.685,168.022c0.038-0.341,0.134-0.667,0.296-0.974c0.147-0.453,0.4-0.845,0.756-1.177
				c0.331-0.357,0.723-0.609,1.177-0.756c0.436-0.229,0.905-0.334,1.409-0.315c0.503-0.019,0.973,0.086,1.409,0.315
				c0.453,0.147,0.845,0.399,1.177,0.756c0.191,0.247,0.381,0.493,0.572,0.74c0.331,0.57,0.497,1.185,0.499,1.845
				c-0.044,0.324-0.087,0.648-0.131,0.972c-0.174,0.619-0.487,1.157-0.94,1.613l-0.74,0.572c-0.42,0.267-0.873,0.412-1.359,0.434
				c-0.003,0.001-0.005,0.001-0.008,0.001c-0.113,0.023-0.226,0.042-0.339,0.053c-0.018,0.002-0.036,0.002-0.054,0.004
				c-0.408,0.035-0.816,0.005-1.224-0.105c-0.591-0.166-1.104-0.465-1.539-0.897c-0.432-0.435-0.731-0.948-0.897-1.539
				C122.609,169.05,122.593,168.536,122.685,168.022z"/>
		</g>
	</g>
	<path style="fill:#FFFFFF;" d="M409.383,203.272c-3.546-0.036-7.093-0.071-10.639-0.107c-0.036-3.546-0.071-7.093-0.107-10.639
		c0.046-4.618-3.541-6.911-7.129-6.882c-3.587-0.032-7.173,2.257-7.127,6.882c-0.035,3.498-0.07,6.996-0.105,10.494
		c-2.73-0.027-5.459-0.055-8.189-0.082c-0.702-0.034-1.405-0.047-2.109-0.021c-4.848-0.049-7.255,3.717-7.225,7.483
		c-0.034,3.766,2.369,7.532,7.225,7.483c0.704,0.025,1.407,0.013,2.11-0.021c2.68-0.027,5.36-0.054,8.039-0.081
		c-0.027,2.68-0.054,5.361-0.081,8.041c-0.034,0.702-0.047,1.405-0.021,2.109c-0.049,4.848,3.717,7.255,7.483,7.225
		c3.766,0.034,7.532-2.369,7.483-7.225c0.025-0.704,0.013-1.407-0.021-2.11c-0.027-2.729-0.055-5.458-0.082-8.188
		c3.498-0.035,6.996-0.07,10.494-0.105c4.618,0.046,6.911-3.541,6.882-7.129C416.297,206.812,414.008,203.225,409.383,203.272z"/>
	<path style="fill:#FFFFFF;" d="M119.778,292.698c-3.546-0.036-7.093-0.071-10.639-0.107c-0.036-3.546-0.071-7.093-0.107-10.639
		c0.046-4.618-3.541-6.911-7.129-6.882c-3.587-0.032-7.173,2.257-7.127,6.882c-0.035,3.498-0.07,6.996-0.105,10.494
		c-2.73-0.027-5.459-0.055-8.189-0.082c-0.702-0.034-1.405-0.047-2.109-0.021c-4.848-0.049-7.255,3.717-7.225,7.483
		c-0.034,3.766,2.369,7.532,7.225,7.483c0.704,0.025,1.407,0.013,2.11-0.021c2.68-0.027,5.36-0.054,8.039-0.081
		c-0.027,2.68-0.054,5.36-0.081,8.041c-0.034,0.702-0.047,1.405-0.021,2.108c-0.049,4.848,3.717,7.255,7.483,7.225
		c3.766,0.034,7.532-2.369,7.483-7.225c0.025-0.704,0.013-1.407-0.021-2.11c-0.027-2.729-0.055-5.458-0.082-8.188
		c3.498-0.035,6.996-0.07,10.494-0.105c4.618,0.046,6.911-3.541,6.882-7.129C126.692,296.238,124.403,292.652,119.778,292.698z"/>
	<path style="fill:#FFFFFF;" d="M144.695,111.847c-1.802-0.018-3.605-0.036-5.407-0.054c-0.018-1.802-0.036-3.604-0.054-5.407
		c0.024-2.347-1.8-3.512-3.623-3.497c-1.823-0.016-3.645,1.147-3.622,3.497c-0.018,1.778-0.036,3.555-0.053,5.333
		c-1.387-0.014-2.774-0.028-4.162-0.042c-0.357-0.017-0.714-0.024-1.072-0.011c-2.464-0.025-3.687,1.889-3.672,3.803
		c-0.018,1.914,1.204,3.827,3.672,3.803c0.358,0.013,0.715,0.007,1.072-0.011c1.362-0.014,2.724-0.027,4.086-0.041
		c-0.014,1.362-0.027,2.724-0.041,4.086c-0.017,0.357-0.024,0.714-0.011,1.072c-0.025,2.464,1.889,3.687,3.803,3.672
		c1.914,0.018,3.827-1.204,3.803-3.672c0.013-0.358,0.007-0.715-0.011-1.072c-0.014-1.387-0.028-2.774-0.042-4.161
		c1.778-0.018,3.555-0.036,5.333-0.054c2.347,0.024,3.512-1.8,3.497-3.623C148.208,113.646,147.045,111.824,144.695,111.847z"/>
	<path style="fill:#FFFFFF;" d="M436.495,242.741c-2.01-0.02-4.021-0.04-6.031-0.061c-0.02-2.01-0.04-4.021-0.061-6.031
		c0.026-2.618-2.007-3.918-4.041-3.901c-2.033-0.018-4.066,1.279-4.04,3.901c-0.02,1.983-0.04,3.966-0.06,5.949
		c-1.547-0.016-3.095-0.031-4.642-0.047c-0.398-0.019-0.797-0.026-1.195-0.012c-2.748-0.028-4.113,2.107-4.095,4.242
		c-0.019,2.135,1.343,4.269,4.095,4.242c0.399,0.014,0.798,0.007,1.196-0.012c1.519-0.015,3.038-0.031,4.557-0.046
		c-0.015,1.519-0.03,3.039-0.046,4.558c-0.019,0.398-0.026,0.797-0.012,1.195c-0.028,2.748,2.107,4.113,4.242,4.095
		c2.135,0.02,4.269-1.343,4.242-4.095c0.014-0.399,0.007-0.798-0.012-1.196c-0.016-1.547-0.031-3.094-0.047-4.641
		c1.983-0.02,3.966-0.04,5.949-0.06c2.618,0.026,3.918-2.007,3.901-4.041C440.414,244.748,439.116,242.715,436.495,242.741z"/>
	<path style="fill:#FFFFFF;" d="M88.418,253.06c-2.01-0.02-4.021-0.04-6.031-0.061c-0.02-2.01-0.04-4.021-0.06-6.031
		c0.026-2.618-2.007-3.918-4.041-3.901c-2.033-0.018-4.066,1.279-4.04,3.901c-0.02,1.983-0.04,3.966-0.06,5.949
		c-1.547-0.016-3.095-0.031-4.642-0.047c-0.398-0.02-0.797-0.026-1.195-0.012c-2.748-0.028-4.113,2.107-4.096,4.242
		c-0.019,2.135,1.343,4.269,4.096,4.242c0.399,0.014,0.798,0.007,1.196-0.012c1.519-0.015,3.038-0.03,4.557-0.046
		c-0.015,1.519-0.03,3.039-0.046,4.558c-0.019,0.398-0.026,0.797-0.012,1.195c-0.028,2.748,2.107,4.113,4.242,4.096
		c2.135,0.019,4.269-1.343,4.242-4.096c0.014-0.399,0.007-0.797-0.012-1.196c-0.015-1.547-0.031-3.094-0.047-4.641
		c1.983-0.02,3.966-0.04,5.949-0.06c2.618,0.026,3.918-2.007,3.901-4.041C92.338,255.066,91.04,253.033,88.418,253.06z"/>
</g>
</svg>
