<?xml version="1.0" encoding="iso-8859-1"?>
<!-- Uploaded to: SVG Repo, www.svgrepo.com, Generator: SVG Repo Mixer Tools -->
<svg height="800px" width="800px" version="1.1" id="Layer_1" xmlns="http://www.w3.org/2000/svg" xmlns:xlink="http://www.w3.org/1999/xlink" 
	 viewBox="0 0 512 512" xml:space="preserve">
<path style="fill:#2D2D2D;" d="M512,31.344c0-5.744-4.704-10.448-10.448-10.448H10.448C4.704,20.896,0,25.6,0,31.344v323.92h512
	V31.344z M491.104,334.368H20.896V41.792h470.2v292.576H491.104z"/>
<g>
	<path style="fill:#E8E8E8;" d="M512,355.264H0v41.8c0,5.744,4.704,10.448,10.448,10.448h182.856h125.392h182.856
		c5.744,0,10.448-4.704,10.448-10.448V355.264z"/>
	<polygon style="fill:#E8E8E8;" points="146.288,480.648 146.288,491.104 365.712,491.104 365.712,480.648 329.144,480.648 
		182.856,480.648 	"/>
</g>
<polygon style="fill:#C9C9C9;" points="182.856,480.648 329.144,480.648 318.696,407.512 193.304,407.512 "/>
<path style="fill:#8AD5DD;" d="M20.896,334.368h470.2V41.792h-470.2V334.368z M99.912,209.624c8.192,0,15.632,2.944,21.592,7.672
	l41.368-41.368c-7.184-8.48-11.536-19.44-11.536-31.432c0-26.888,21.8-48.688,48.688-48.688s48.688,21.8,48.688,48.688
	c0,12.096-4.432,23.136-11.736,31.648l41.416,41.792c6.072-5.112,13.808-8.304,22.36-8.304c7.728,0,14.8,2.592,20.584,6.84
	l40-40.352c-7.28-8.512-11.704-19.536-11.704-31.616c0-26.888,21.8-48.688,48.688-48.688s48.688,21.8,48.688,48.688
	s-21.8,48.688-48.688,48.688c-11.928,0-22.84-4.304-31.304-11.424l-39.84,40.192c5.224,6.104,8.496,13.928,8.496,22.592
	c0,19.28-15.632,34.912-34.912,34.912s-34.912-15.632-34.912-34.912c0-7.832,2.672-14.992,7.032-20.816l-41.592-41.952
	c-8.464,7.104-19.36,11.392-31.272,11.392c-12.016,0-23-4.376-31.496-11.592l-41.36,41.36c4.728,5.96,7.664,13.392,7.664,21.584
	c0,19.28-15.632,34.912-34.912,34.912S65,263.808,65,244.528S80.632,209.624,99.912,209.624z"/>
<g>
	<path style="fill:#2D2D2D;" d="M231.288,181.784l41.576,41.936c1.608-2.152,3.472-4.064,5.52-5.792l-41.416-41.792
		C235.232,178.168,233.336,180.064,231.288,181.784z"/>
	<path style="fill:#2D2D2D;" d="M127.16,222.944l41.36-41.36c-2.032-1.728-3.928-3.624-5.656-5.656l-41.368,41.368
		C123.608,218.96,125.496,220.848,127.16,222.944z"/>
	<path style="fill:#2D2D2D;" d="M327.168,221.944l39.84-40.192c-2.048-1.72-3.936-3.616-5.672-5.64l-40,40.352
		C323.496,218.056,325.424,219.904,327.168,221.944z"/>
</g>
<path style="fill:#FFFFFF;" d="M99.912,279.448c19.28,0,34.912-15.632,34.912-34.912c0-8.192-2.944-15.632-7.664-21.584
	c-1.664-2.104-3.552-3.992-5.656-5.656c-5.96-4.728-13.392-7.672-21.592-7.672c-19.28,0-34.912,15.632-34.912,34.912
	S80.632,279.448,99.912,279.448z M99.912,229.168c8.488,0,15.368,6.88,15.368,15.368s-6.88,15.368-15.368,15.368
	s-15.368-6.88-15.368-15.368S91.432,229.168,99.912,229.168z"/>
<circle style="fill:#E8E8E8;" cx="99.912" cy="244.536" r="15.368"/>
<path style="fill:#DB2B42;" d="M272.864,223.72c-4.36,5.824-7.032,12.976-7.032,20.816c0,19.28,15.632,34.912,34.912,34.912
	s34.912-15.632,34.912-34.912c0-8.664-3.272-16.488-8.496-22.592c-1.744-2.04-3.664-3.888-5.832-5.48
	c-5.784-4.248-12.856-6.84-20.584-6.84c-8.56,0-16.288,3.2-22.36,8.304C276.336,219.656,274.472,221.568,272.864,223.72z
	 M300.752,229.168c8.488,0,15.368,6.88,15.368,15.368s-6.88,15.368-15.368,15.368s-15.368-6.88-15.368-15.368
	S292.264,229.168,300.752,229.168z"/>
<circle style="fill:#EA5071;" cx="300.752" cy="244.536" r="15.368"/>
<path style="fill:#DB2B42;" d="M168.52,181.584c8.496,7.216,19.472,11.592,31.496,11.592c11.912,0,22.816-4.288,31.272-11.392
	c2.048-1.72,3.936-3.616,5.68-5.64c7.296-8.512,11.736-19.552,11.736-31.648c0-26.888-21.8-48.688-48.688-48.688
	s-48.688,21.8-48.688,48.688c0,11.992,4.352,22.952,11.536,31.432C164.6,177.96,166.488,179.856,168.52,181.584z M178.592,144.496
	c0-11.832,9.592-21.424,21.424-21.424s21.424,9.592,21.424,21.424s-9.592,21.424-21.424,21.424S178.592,156.328,178.592,144.496z"/>
<circle style="fill:#EA5071;" cx="200" cy="144.504" r="21.424"/>
<path style="fill:#FFFFFF;" d="M367.008,181.752c8.464,7.12,19.376,11.424,31.304,11.424c26.888,0,48.688-21.8,48.688-48.688
	S425.2,95.8,398.312,95.8s-48.688,21.8-48.688,48.688c0,12.08,4.424,23.104,11.704,31.616
	C363.072,178.136,364.96,180.032,367.008,181.752z M376.888,144.496c0-11.832,9.592-21.424,21.424-21.424
	s21.424,9.592,21.424,21.424s-9.592,21.424-21.424,21.424S376.888,156.328,376.888,144.496z"/>
<circle style="fill:#E8E8E8;" cx="398.312" cy="144.504" r="21.424"/>
</svg>