<svg width="26" height="28" viewBox="0 0 26 28" fill="none" xmlns="http://www.w3.org/2000/svg">
<path d="M17.7313 2.07586C16.5191 0.767105 14.826 0.0463867 12.9572 0.0463867C11.0785 0.0463867 9.37982 0.762745 8.17322 2.0634C6.95355 3.37839 6.35928 5.16554 6.49881 7.09535C6.77539 10.9026 9.67259 13.9998 12.9572 13.9998C16.2419 13.9998 19.1341 10.9033 19.4151 7.09659C19.5565 5.18423 18.9585 3.40081 17.7313 2.07586Z" fill="white"/>
<path d="M23.9205 27.9532H1.9937C1.7067 27.957 1.42247 27.8967 1.16171 27.7767C0.900937 27.6568 0.670184 27.4802 0.486234 27.2599C0.0813359 26.7759 -0.0818692 26.115 0.0389773 25.4466C0.564722 22.5301 2.20549 20.0801 4.78438 18.3603C7.07548 16.8335 9.97766 15.9932 12.9571 15.9932C15.9365 15.9932 18.8387 16.8341 21.1298 18.3603C23.7087 20.0795 25.3495 22.5295 25.8752 25.446C25.9961 26.1144 25.8328 26.7753 25.4279 27.2593C25.2441 27.4797 25.0133 27.6564 24.7526 27.7765C24.4918 27.8965 24.2075 27.9569 23.9205 27.9532Z" fill="white"/>
</svg>
