<svg width="38" height="28" viewBox="0 0 38 28" fill="none" xmlns="http://www.w3.org/2000/svg">
<path d="M25.2014 13.6897C23.6076 13.6897 22.0665 12.9781 20.8603 11.6866C19.6874 10.427 18.9712 8.74712 18.8448 6.95798C18.7099 5.04946 19.2921 3.29443 20.4836 2.01537C21.675 0.736306 23.3409 0.0463867 25.2014 0.0463867C27.0486 0.0463867 28.7192 0.748708 29.9068 2.02467C31.106 3.31304 31.6897 5.06496 31.5548 6.9572C31.4254 8.74867 30.7099 10.4277 29.5393 11.6859C28.3362 12.9781 26.7959 13.6897 25.2014 13.6897Z" fill="white"/>
<path d="M35.4208 27.3329H14.9829C14.6543 27.3347 14.3297 27.261 14.034 27.1176C13.7383 26.9742 13.4795 26.7649 13.2775 26.5058C13.0631 26.2249 12.9151 25.8991 12.8445 25.5529C12.7739 25.2067 12.7825 24.849 12.8697 24.5066C13.5224 21.8856 15.1395 19.712 17.5457 18.2213C19.6813 16.8988 22.3999 16.1702 25.2014 16.1702C28.058 16.1702 30.7053 16.8678 32.8533 18.1895C35.2649 19.6725 36.8843 21.8585 37.5339 24.5112C37.6201 24.8539 37.6277 25.2116 37.5563 25.5576C37.4849 25.9036 37.3363 26.2291 37.1215 26.5096C36.9197 26.7676 36.6614 26.9759 36.3666 27.1186C36.0718 27.2613 35.7483 27.3346 35.4208 27.3329Z" fill="white"/>
<path d="M10.5503 13.9997C7.82241 13.9997 5.42397 11.4632 5.20149 8.34621C5.09141 6.74931 5.58908 5.27258 6.59683 4.18964C7.59372 3.11755 8.99992 2.52686 10.5503 2.52686C12.1007 2.52686 13.496 3.12065 14.4983 4.19894C15.5138 5.29041 16.01 6.76404 15.8937 8.34775C15.6712 11.464 13.2735 13.9997 10.5503 13.9997Z" fill="white"/>
<path d="M15.6402 16.4377C14.2766 15.7711 12.5069 15.4377 10.5511 15.4377C8.26735 15.4377 6.04953 16.0331 4.30536 17.1137C2.32785 18.3408 0.99762 20.1276 0.460414 22.285C0.381798 22.5953 0.374362 22.9194 0.438663 23.2329C0.502963 23.5465 0.637336 23.8415 0.831729 24.0958C1.01618 24.3326 1.25249 24.524 1.52248 24.6551C1.79246 24.7863 2.08893 24.8538 2.38909 24.8524H10.9937C11.1389 24.8524 11.2795 24.8014 11.391 24.7083C11.5025 24.6153 11.5778 24.486 11.6038 24.3431C11.6123 24.2943 11.6231 24.2455 11.6355 24.1974C12.2929 21.5571 13.8332 19.3261 16.1092 17.6997C16.1929 17.6394 16.2602 17.5591 16.3051 17.4662C16.3499 17.3733 16.3709 17.2706 16.366 17.1675C16.3612 17.0644 16.3307 16.9642 16.2773 16.8759C16.2239 16.7876 16.1493 16.714 16.0603 16.6618C15.9386 16.5905 15.7991 16.5153 15.6402 16.4377Z" fill="white"/>
</svg>
